<?xml version="1.0" encoding="UTF-8"?>
<svg xmlns="http://www.w3.org/2000/svg" xmlns:xlink="http://www.w3.org/1999/xlink" width="3000" height="3000" viewBox="0 0 3000 3000">
<defs>
<clipPath id="clip-0">
<path clip-rule="nonzero" d="M 876 624 L 2124 624 L 2124 1865 L 876 1865 Z M 876 624 "/>
</clipPath>
<clipPath id="clip-1">
<path clip-rule="evenodd" d="M 1763.921875 853.691406 C 1688.789062 547.179688 1351.628906 650.378906 1167.621094 744.53125 C 1054.058594 802.628906 948.085938 861.511719 877.269531 840.511719 C 914.429688 925.71875 1014.121094 938.121094 1074.488281 922.988281 C 1007.851562 996.46875 863.8125 1026.488281 877.535156 1198.078125 C 959.03125 1026.71875 1186.761719 1064.539062 1259.191406 928.269531 C 1226.671875 941.988281 1160.660156 967.75 1127.269531 960.378906 C 1216.359375 907.871094 1328.808594 827.46875 1419.039062 815.820312 C 1283.328125 797.941406 1201.140625 892.589844 1079.28125 862.25 C 1127.410156 844.289062 1170.070312 824.398438 1209.210938 804.820312 C 1395.589844 711.578125 1623.839844 616.511719 1763.910156 853.691406 Z M 1818.03125 905.328125 C 1818.03125 905.328125 1851.578125 916.519531 1856.660156 935.839844 C 1861.75 955.160156 1882.761719 978.878906 1882.761719 978.878906 C 1882.761719 978.878906 1843.101562 982.949219 1801.421875 978.210938 C 1759.730469 973.460938 1720.75 931.769531 1720.75 931.769531 C 1720.75 931.769531 1809.890625 942.609375 1826.839844 942.960938 C 1843.78125 943.289062 1818.03125 905.339844 1818.03125 905.339844 Z M 1962.488281 959.828125 C 2002.929688 985.308594 2069.148438 1020.191406 2107.738281 1050.570312 C 2141.539062 1077.191406 2111.488281 1083.628906 2101.75 1113.949219 C 2093.578125 1139.371094 2094.421875 1209.539062 2016.519531 1224.308594 C 2059.011719 1195.949219 2070.429688 1168.699219 2060.640625 1131.121094 C 2051.730469 1126.410156 2015.089844 1106.390625 1997 1096.621094 C 1941.75 1066.820312 2120.160156 1103.160156 2079.96875 1063.511719 C 2044.75 1028.769531 1962.488281 959.828125 1962.488281 959.828125 Z M 1689.449219 863.410156 C 1541.878906 758.339844 1487.660156 822.429688 1573.480469 925.5 C 1466.238281 876.371094 1469.210938 729.011719 1639.390625 779.710938 C 1574.511719 714.839844 1453.070312 707.679688 1364.03125 769.730469 C 1420.871094 758.800781 1462.441406 751.589844 1507.480469 763.429688 C 1477.601562 784.851562 1411.828125 855.949219 1443.039062 895.121094 C 1457.878906 913.75 1488.078125 936.238281 1514.050781 951.28125 C 1370.070312 918.960938 1321.011719 922.359375 1216.820312 1017.878906 C 1257.710938 1001.230469 1348.269531 985.980469 1423.230469 995.058594 C 1487.25 1002.800781 1555.449219 1043.191406 1485.878906 1106.539062 C 1530.589844 1103.371094 1552.261719 1084.019531 1562.828125 1062.621094 C 1608.109375 970.960938 1580.640625 936.71875 1689.449219 863.398438 Z M 1598.949219 1037.761719 C 1576.191406 1216.53125 1398.890625 1140.78125 1312.910156 1202.890625 C 1336.320312 1136.121094 1386.441406 1098.449219 1471.351562 1061.898438 C 1228.761719 1063.449219 1115.609375 1327.890625 1202.878906 1513.269531 C 1196.640625 1370.949219 1286.78125 1256.890625 1433.179688 1244.390625 C 1284.441406 1381.300781 1156.699219 1650.300781 1492.230469 1864.25 C 1138.789062 1418.648438 1697.328125 1312.488281 1598.949219 1037.761719 Z M 1301.378906 1054.949219 C 1062.121094 1208.71875 1074.75 1574.488281 1228.398438 1689.070312 C 1065.210938 1630.328125 1008.351562 1436.019531 1039.390625 1333.851562 C 1072.359375 1225.359375 929.664062 1313.121094 942.4375 1478.941406 C 831.386719 1196.589844 1141.800781 1053.011719 1301.378906 1054.949219 Z M 1659.070312 1222.160156 C 1531.800781 1294.199219 1421.910156 1429.621094 1475.761719 1590.511719 C 1511.558594 1495.398438 1617.921875 1522.160156 1571.398438 1809.171875 C 1669.648438 1724.921875 1757.261719 1621.738281 1700.640625 1452.980469 C 1687.308594 1510.890625 1667.578125 1549.96875 1649.550781 1575.648438 C 1626.730469 1452.851562 1515.960938 1371.390625 1659.070312 1222.160156 Z M 1651.621094 949.339844 C 1651.621094 949.339844 1583.101562 1071.160156 1674.460938 1177.75 C 1765.828125 1284.339844 1644.261719 1383.199219 1644.261719 1383.199219 C 1644.261719 1383.199219 1704.410156 1386.371094 1766.140625 1343.628906 C 1827.859375 1300.898438 1910.171875 1343.628906 1872.179688 1406.941406 C 1871.261719 1408.46875 1870.371094 1409.910156 1869.480469 1411.300781 C 1908.441406 1403.71875 1963.210938 1388.019531 2002.761719 1356.300781 C 2070.808594 1301.691406 2048.660156 1234.421875 2048.660156 1234.421875 C 2048.660156 1234.421875 2032.828125 1310.390625 1993.261719 1323.058594 C 1953.691406 1335.71875 1913.328125 1277.160156 1916.5 1269.238281 C 1922.351562 1254.609375 1994.519531 1264.160156 2019.378906 1177.441406 C 1957.828125 1264.101562 1815.289062 1249.5 1859.519531 1167.148438 C 1882.46875 1124.421875 1928.371094 1126.789062 1928.371094 1126.789062 C 1928.371094 1126.789062 1906.210938 1086.441406 1832.609375 1113.339844 C 1759.011719 1140.25 1637.910156 1115.660156 1651.621094 949.339844 Z M 1954.050781 966.128906 C 1930.890625 932.929688 1946.960938 887.949219 1899.640625 842.800781 C 1935.890625 637.691406 1711.441406 708.878906 1643.730469 624.558594 C 1690.828125 764.320312 1864.859375 650.570312 1822.628906 869.828125 C 1822.628906 869.828125 1856.078125 841.121094 1866.269531 819.089844 C 1868.460938 834.550781 1870.398438 853.109375 1870.71875 871.839844 C 1933.480469 892.859375 1902.371094 940.96875 1954.050781 966.128906 "/>
</clipPath>
<linearGradient id="linear-pattern-0" gradientUnits="userSpaceOnUse" x1="-0.941843" y1="0" x2="2.038239" y2="0" gradientTransform="matrix(374.582, 491.534, 491.534, -374.582, 1282.78, 934.99)">
<stop offset="0" stop-color="rgb(56.077576%, 43.136597%, 19.607544%)" stop-opacity="1"/>
<stop offset="0.25" stop-color="rgb(56.077576%, 43.136597%, 19.607544%)" stop-opacity="1"/>
<stop offset="0.3125" stop-color="rgb(56.077576%, 43.136597%, 19.607544%)" stop-opacity="1"/>
<stop offset="0.316406" stop-color="rgb(56.452942%, 43.527222%, 20.039368%)" stop-opacity="1"/>
<stop offset="0.320312" stop-color="rgb(56.829834%, 43.919373%, 20.471191%)" stop-opacity="1"/>
<stop offset="0.324219" stop-color="rgb(57.519531%, 44.636536%, 21.263123%)" stop-opacity="1"/>
<stop offset="0.328125" stop-color="rgb(58.209229%, 45.353699%, 22.055054%)" stop-opacity="1"/>
<stop offset="0.332031" stop-color="rgb(58.8974%, 46.070862%, 22.845459%)" stop-opacity="1"/>
<stop offset="0.335938" stop-color="rgb(59.587097%, 46.788025%, 23.63739%)" stop-opacity="1"/>
<stop offset="0.339844" stop-color="rgb(60.275269%, 47.505188%, 24.429321%)" stop-opacity="1"/>
<stop offset="0.34375" stop-color="rgb(60.964966%, 48.222351%, 25.221252%)" stop-opacity="1"/>
<stop offset="0.347656" stop-color="rgb(61.653137%, 48.939514%, 26.011658%)" stop-opacity="1"/>
<stop offset="0.351562" stop-color="rgb(62.342834%, 49.656677%, 26.803589%)" stop-opacity="1"/>
<stop offset="0.355469" stop-color="rgb(63.032532%, 50.37384%, 27.59552%)" stop-opacity="1"/>
<stop offset="0.359375" stop-color="rgb(63.722229%, 51.091003%, 28.387451%)" stop-opacity="1"/>
<stop offset="0.363281" stop-color="rgb(64.4104%, 51.808167%, 29.179382%)" stop-opacity="1"/>
<stop offset="0.367187" stop-color="rgb(65.100098%, 52.52533%, 29.971313%)" stop-opacity="1"/>
<stop offset="0.371094" stop-color="rgb(65.788269%, 53.240967%, 30.761719%)" stop-opacity="1"/>
<stop offset="0.375" stop-color="rgb(66.477966%, 53.95813%, 31.55365%)" stop-opacity="1"/>
<stop offset="0.378906" stop-color="rgb(67.167664%, 54.675293%, 32.345581%)" stop-opacity="1"/>
<stop offset="0.382812" stop-color="rgb(67.857361%, 55.392456%, 33.137512%)" stop-opacity="1"/>
<stop offset="0.386719" stop-color="rgb(68.545532%, 56.109619%, 33.927917%)" stop-opacity="1"/>
<stop offset="0.390625" stop-color="rgb(69.235229%, 56.826782%, 34.719849%)" stop-opacity="1"/>
<stop offset="0.394531" stop-color="rgb(69.923401%, 57.543945%, 35.51178%)" stop-opacity="1"/>
<stop offset="0.398437" stop-color="rgb(70.613098%, 58.261108%, 36.303711%)" stop-opacity="1"/>
<stop offset="0.402344" stop-color="rgb(71.30127%, 58.978271%, 37.094116%)" stop-opacity="1"/>
<stop offset="0.40625" stop-color="rgb(71.990967%, 59.695435%, 37.886047%)" stop-opacity="1"/>
<stop offset="0.410156" stop-color="rgb(72.680664%, 60.412598%, 38.677979%)" stop-opacity="1"/>
<stop offset="0.414062" stop-color="rgb(73.370361%, 61.129761%, 39.46991%)" stop-opacity="1"/>
<stop offset="0.417969" stop-color="rgb(74.058533%, 61.846924%, 40.260315%)" stop-opacity="1"/>
<stop offset="0.421875" stop-color="rgb(74.74823%, 62.564087%, 41.052246%)" stop-opacity="1"/>
<stop offset="0.425781" stop-color="rgb(75.436401%, 63.28125%, 41.844177%)" stop-opacity="1"/>
<stop offset="0.429687" stop-color="rgb(76.126099%, 63.998413%, 42.636108%)" stop-opacity="1"/>
<stop offset="0.433594" stop-color="rgb(76.81427%, 64.715576%, 43.426514%)" stop-opacity="1"/>
<stop offset="0.4375" stop-color="rgb(77.503967%, 65.432739%, 44.218445%)" stop-opacity="1"/>
<stop offset="0.441406" stop-color="rgb(78.193665%, 66.149902%, 45.010376%)" stop-opacity="1"/>
<stop offset="0.445312" stop-color="rgb(78.883362%, 66.867065%, 45.802307%)" stop-opacity="1"/>
<stop offset="0.449219" stop-color="rgb(79.571533%, 67.582703%, 46.594238%)" stop-opacity="1"/>
<stop offset="0.453125" stop-color="rgb(80.26123%, 68.299866%, 47.386169%)" stop-opacity="1"/>
<stop offset="0.457031" stop-color="rgb(80.949402%, 69.017029%, 48.176575%)" stop-opacity="1"/>
<stop offset="0.460938" stop-color="rgb(81.639099%, 69.734192%, 48.968506%)" stop-opacity="1"/>
<stop offset="0.464844" stop-color="rgb(82.328796%, 70.451355%, 49.760437%)" stop-opacity="1"/>
<stop offset="0.46875" stop-color="rgb(83.018494%, 71.168518%, 50.552368%)" stop-opacity="1"/>
<stop offset="0.472656" stop-color="rgb(83.706665%, 71.885681%, 51.342773%)" stop-opacity="1"/>
<stop offset="0.476562" stop-color="rgb(84.396362%, 72.602844%, 52.134705%)" stop-opacity="1"/>
<stop offset="0.480469" stop-color="rgb(84.420776%, 72.628784%, 52.175903%)" stop-opacity="1"/>
<stop offset="0.484375" stop-color="rgb(84.446716%, 72.654724%, 52.218628%)" stop-opacity="1"/>
<stop offset="0.488281" stop-color="rgb(83.782959%, 71.965027%, 51.48468%)" stop-opacity="1"/>
<stop offset="0.492188" stop-color="rgb(83.120728%, 71.27533%, 50.750732%)" stop-opacity="1"/>
<stop offset="0.496094" stop-color="rgb(82.458496%, 70.585632%, 50.015259%)" stop-opacity="1"/>
<stop offset="0.5" stop-color="rgb(81.796265%, 69.897461%, 49.281311%)" stop-opacity="1"/>
<stop offset="0.503906" stop-color="rgb(81.132507%, 69.207764%, 48.547363%)" stop-opacity="1"/>
<stop offset="0.507812" stop-color="rgb(80.470276%, 68.518066%, 47.813416%)" stop-opacity="1"/>
<stop offset="0.511719" stop-color="rgb(79.806519%, 67.828369%, 47.077942%)" stop-opacity="1"/>
<stop offset="0.515625" stop-color="rgb(79.144287%, 67.138672%, 46.343994%)" stop-opacity="1"/>
<stop offset="0.519531" stop-color="rgb(78.482056%, 66.448975%, 45.610046%)" stop-opacity="1"/>
<stop offset="0.523438" stop-color="rgb(77.819824%, 65.759277%, 44.876099%)" stop-opacity="1"/>
<stop offset="0.527344" stop-color="rgb(77.156067%, 65.06958%, 44.142151%)" stop-opacity="1"/>
<stop offset="0.53125" stop-color="rgb(76.493835%, 64.381409%, 43.408203%)" stop-opacity="1"/>
<stop offset="0.535156" stop-color="rgb(75.831604%, 63.691711%, 42.672729%)" stop-opacity="1"/>
<stop offset="0.539062" stop-color="rgb(75.169373%, 63.002014%, 41.938782%)" stop-opacity="1"/>
<stop offset="0.542969" stop-color="rgb(74.505615%, 62.312317%, 41.204834%)" stop-opacity="1"/>
<stop offset="0.546875" stop-color="rgb(73.843384%, 61.62262%, 40.470886%)" stop-opacity="1"/>
<stop offset="0.550781" stop-color="rgb(73.181152%, 60.932922%, 39.735413%)" stop-opacity="1"/>
<stop offset="0.554688" stop-color="rgb(72.518921%, 60.244751%, 39.001465%)" stop-opacity="1"/>
<stop offset="0.558594" stop-color="rgb(71.855164%, 59.555054%, 38.267517%)" stop-opacity="1"/>
<stop offset="0.5625" stop-color="rgb(71.192932%, 58.865356%, 37.533569%)" stop-opacity="1"/>
<stop offset="0.566406" stop-color="rgb(70.530701%, 58.175659%, 36.798096%)" stop-opacity="1"/>
<stop offset="0.570312" stop-color="rgb(69.868469%, 57.485962%, 36.064148%)" stop-opacity="1"/>
<stop offset="0.574219" stop-color="rgb(69.204712%, 56.796265%, 35.3302%)" stop-opacity="1"/>
<stop offset="0.578125" stop-color="rgb(68.54248%, 56.106567%, 34.596252%)" stop-opacity="1"/>
<stop offset="0.582031" stop-color="rgb(67.880249%, 55.41687%, 33.862305%)" stop-opacity="1"/>
<stop offset="0.585938" stop-color="rgb(67.218018%, 54.728699%, 33.128357%)" stop-opacity="1"/>
<stop offset="0.589844" stop-color="rgb(66.55426%, 54.039001%, 32.392883%)" stop-opacity="1"/>
<stop offset="0.59375" stop-color="rgb(65.892029%, 53.349304%, 31.658936%)" stop-opacity="1"/>
<stop offset="0.597656" stop-color="rgb(65.229797%, 52.659607%, 30.924988%)" stop-opacity="1"/>
<stop offset="0.601562" stop-color="rgb(64.567566%, 51.96991%, 30.19104%)" stop-opacity="1"/>
<stop offset="0.605469" stop-color="rgb(63.903809%, 51.280212%, 29.455566%)" stop-opacity="1"/>
<stop offset="0.609375" stop-color="rgb(63.241577%, 50.590515%, 28.721619%)" stop-opacity="1"/>
<stop offset="0.613281" stop-color="rgb(62.579346%, 49.900818%, 27.987671%)" stop-opacity="1"/>
<stop offset="0.617188" stop-color="rgb(61.917114%, 49.212646%, 27.253723%)" stop-opacity="1"/>
<stop offset="0.621094" stop-color="rgb(61.253357%, 48.522949%, 26.51825%)" stop-opacity="1"/>
<stop offset="0.625" stop-color="rgb(60.591125%, 47.833252%, 25.784302%)" stop-opacity="1"/>
<stop offset="0.628906" stop-color="rgb(59.927368%, 47.143555%, 25.050354%)" stop-opacity="1"/>
<stop offset="0.632812" stop-color="rgb(59.265137%, 46.453857%, 24.316406%)" stop-opacity="1"/>
<stop offset="0.636719" stop-color="rgb(58.602905%, 45.76416%, 23.582458%)" stop-opacity="1"/>
<stop offset="0.640625" stop-color="rgb(57.940674%, 45.074463%, 22.848511%)" stop-opacity="1"/>
<stop offset="0.644531" stop-color="rgb(57.276917%, 44.384766%, 22.113037%)" stop-opacity="1"/>
<stop offset="0.648438" stop-color="rgb(56.614685%, 43.696594%, 21.379089%)" stop-opacity="1"/>
<stop offset="0.652344" stop-color="rgb(56.34613%, 43.415833%, 21.081543%)" stop-opacity="1"/>
<stop offset="0.65625" stop-color="rgb(56.077576%, 43.136597%, 20.783997%)" stop-opacity="1"/>
<stop offset="0.6875" stop-color="rgb(56.077576%, 43.136597%, 20.783997%)" stop-opacity="1"/>
<stop offset="0.75" stop-color="rgb(56.077576%, 43.136597%, 20.783997%)" stop-opacity="1"/>
<stop offset="1" stop-color="rgb(56.077576%, 43.136597%, 20.783997%)" stop-opacity="1"/>
</linearGradient>
</defs>
<rect x="-300" y="-300" width="3600" height="3600" fill="rgb(100%, 100%, 100%)" fill-opacity="1"/>
<g clip-path="url(#clip-0)">
<g clip-path="url(#clip-1)">
<path fill-rule="nonzero" fill="url(#linear-pattern-0)" d="M 196.433594 1031.054688 L 1660.207031 -84.4375 L 2776.492188 1380.375 L 1312.71875 2495.867188 Z M 196.433594 1031.054688 "/>
</g>
</g>
<path fill-rule="evenodd" fill="rgb(9.008789%, 9.008789%, 9.008789%)" fill-opacity="1" d="M 822.476562 2188.949219 L 822.476562 1941.089844 L 767.949219 1941.089844 L 767.949219 2188.949219 Z M 1079.890625 2065.730469 C 1079.890625 2076.351562 1078.058594 2086.320312 1074.398438 2095.648438 C 1070.738281 2104.96875 1065.671875 2113.171875 1059.179688 2120.25 C 1052.691406 2127.339844 1044.839844 2132.878906 1035.628906 2136.890625 C 1026.421875 2140.910156 1016.390625 2142.910156 1005.53125 2142.910156 C 994.4375 2142.910156 984.347656 2140.851562 975.261719 2136.71875 C 966.175781 2132.589844 958.265625 2126.980469 951.539062 2119.898438 C 944.8125 2112.820312 939.617188 2104.558594 935.960938 2095.109375 C 932.300781 2085.671875 930.472656 2075.640625 930.472656 2065.019531 L 930.472656 2064.308594 C 930.472656 2053.691406 932.300781 2043.71875 935.960938 2034.390625 C 939.617188 2025.070312 944.691406 2016.871094 951.1875 2009.78125 C 957.675781 2002.699219 965.46875 1997.148438 974.554688 1993.140625 C 983.644531 1989.128906 993.734375 1987.121094 1004.828125 1987.121094 C 1015.691406 1987.121094 1025.71875 1989.191406 1034.921875 1993.320312 C 1044.128906 1997.449219 1052.101562 2003.050781 1058.828125 2010.140625 C 1065.550781 2017.21875 1070.75 2025.480469 1074.398438 2034.921875 C 1078.058594 2044.359375 1079.890625 2054.398438 1079.890625 2065.019531 Z M 1136.890625 2065.019531 L 1136.890625 2064.308594 C 1136.890625 2046.609375 1133.648438 2030.019531 1127.160156 2014.558594 C 1120.671875 1999.101562 1111.578125 1985.648438 1099.898438 1974.199219 C 1088.210938 1962.75 1074.339844 1953.660156 1058.289062 1946.941406 C 1042.238281 1940.210938 1024.660156 1936.851562 1005.53125 1936.851562 C 986.414062 1936.851562 968.769531 1940.210938 952.597656 1946.941406 C 936.433594 1953.660156 922.503906 1962.871094 910.820312 1974.550781 C 899.136719 1986.238281 889.988281 1999.808594 883.378906 2015.269531 C 876.769531 2030.730469 873.464844 2047.308594 873.464844 2065.019531 L 873.464844 2065.730469 C 873.464844 2083.429688 876.710938 2100.011719 883.203125 2115.46875 C 889.691406 2130.941406 898.78125 2144.390625 910.464844 2155.839844 C 922.148438 2167.289062 936.015625 2176.371094 952.070312 2183.101562 C 968.121094 2189.828125 985.707031 2193.191406 1004.820312 2193.191406 C 1023.949219 2193.191406 1041.589844 2189.828125 1057.761719 2183.101562 C 1073.929688 2176.371094 1087.859375 2167.171875 1099.539062 2155.480469 C 1111.230469 2143.800781 1120.371094 2130.230469 1126.980469 2114.769531 C 1133.589844 2099.300781 1136.898438 2082.71875 1136.898438 2065.019531 Z M 1405.640625 2188.949219 L 1405.640625 1941.089844 L 1351.820312 1941.089844 L 1351.820312 2093.699219 L 1235.679688 1941.089844 L 1185.398438 1941.089844 L 1185.398438 2188.949219 L 1239.21875 2188.949219 L 1239.21875 2031.378906 L 1359.25 2188.949219 Z M 1796.890625 2188.949219 L 1691.378906 2046.25 L 1792.289062 1941.089844 L 1726.429688 1941.089844 L 1625.871094 2049.441406 L 1625.871094 1941.089844 L 1571.339844 1941.089844 L 1571.339844 2188.949219 L 1625.871094 2188.949219 L 1625.871094 2113.171875 L 1654.550781 2083.429688 L 1731.390625 2188.949219 Z M 1886.828125 2188.949219 L 1886.828125 1941.089844 L 1832.300781 1941.089844 L 1832.300781 2188.949219 Z M 2169.019531 2188.949219 L 2169.019531 1941.089844 L 2115.199219 1941.089844 L 2115.199219 2093.699219 L 1999.070312 1941.089844 L 1948.789062 1941.089844 L 1948.789062 2188.949219 L 2002.609375 2188.949219 L 2002.609375 2031.378906 L 2122.640625 2188.949219 Z M 2453.699219 2153.890625 L 2453.699219 2046.25 L 2346.058594 2046.25 L 2346.058594 2093.339844 L 2400.941406 2093.339844 L 2400.941406 2128.988281 C 2387.019531 2138.960938 2369.898438 2143.980469 2349.601562 2143.980469 C 2338.511719 2143.980469 2328.421875 2142.03125 2319.328125 2138.140625 C 2310.238281 2134.238281 2302.339844 2128.699219 2295.609375 2121.609375 C 2288.878906 2114.53125 2283.691406 2106.210938 2280.03125 2096.589844 C 2276.371094 2087.03125 2274.539062 2076.53125 2274.539062 2065.199219 L 2274.539062 2064.488281 C 2274.539062 2053.871094 2276.371094 2043.828125 2280.03125 2034.511719 C 2283.691406 2025.128906 2288.761719 2016.988281 2295.25 2010.019531 C 2301.75 2003.058594 2309.300781 1997.449219 2317.910156 1993.320312 C 2326.53125 1989.191406 2335.789062 1987.128906 2345.710938 1987.128906 C 2352.789062 1987.128906 2359.289062 1987.71875 2365.179688 1988.898438 C 2371.078125 1990.078125 2376.570312 1991.730469 2381.648438 1993.851562 C 2386.71875 1995.980469 2391.621094 1998.578125 2396.339844 2001.640625 C 2401.058594 2004.710938 2405.78125 2008.25 2410.511719 2012.269531 L 2444.851562 1970.839844 C 2438.480469 1965.410156 2431.871094 1960.570312 2425.019531 1956.320312 C 2418.179688 1952.070312 2410.859375 1948.53125 2403.070312 1945.699219 C 2395.28125 1942.871094 2386.839844 1940.679688 2377.75 1939.148438 C 2368.671875 1937.609375 2358.570312 1936.851562 2347.480469 1936.851562 C 2328.601562 1936.851562 2311.25 1940.210938 2295.429688 1946.941406 C 2279.621094 1953.671875 2265.921875 1962.871094 2254.359375 1974.550781 C 2242.789062 1986.238281 2233.761719 1999.808594 2227.269531 2015.28125 C 2220.78125 2030.730469 2217.539062 2047.320312 2217.539062 2065.019531 L 2217.539062 2065.730469 C 2217.539062 2084.140625 2220.71875 2101.140625 2227.089844 2116.71875 C 2233.46875 2132.289062 2242.378906 2145.75 2253.828125 2157.078125 C 2265.28125 2168.410156 2278.96875 2177.261719 2294.898438 2183.628906 C 2310.828125 2190.011719 2328.480469 2193.191406 2347.828125 2193.191406 C 2370.5 2193.191406 2390.621094 2189.359375 2408.199219 2181.691406 C 2425.789062 2174.019531 2440.960938 2164.75 2453.710938 2153.890625 Z M 724.398438 2188.949219 L 724.398438 2139.730469 L 600.824219 2139.730469 L 600.824219 1941.089844 L 546.300781 1941.089844 L 546.300781 2188.949219 L 724.398438 2188.949219 "/>
<path fill-rule="evenodd" fill="rgb(9.008789%, 9.008789%, 9.008789%)" fill-opacity="1" d="M 1015.078125 2323.71875 C 1015.078125 2328.589844 1014.238281 2333.199219 1012.570312 2337.539062 C 1010.898438 2341.890625 1008.578125 2345.660156 1005.621094 2348.859375 C 1002.660156 2352.058594 999.105469 2354.589844 994.949219 2356.460938 C 990.792969 2358.320312 986.230469 2359.25 981.265625 2359.25 C 976.296875 2359.25 971.714844 2358.300781 967.511719 2356.390625 C 963.304688 2354.46875 959.703125 2351.890625 956.695312 2348.648438 C 953.683594 2345.398438 951.34375 2341.601562 949.671875 2337.261719 C 948 2332.910156 947.164062 2328.300781 947.164062 2323.429688 C 947.164062 2318.558594 948 2313.949219 949.671875 2309.601562 C 951.34375 2305.261719 953.660156 2301.488281 956.621094 2298.289062 C 959.582031 2295.089844 963.140625 2292.550781 967.292969 2290.691406 C 971.449219 2288.828125 976.011719 2287.898438 980.980469 2287.898438 C 985.945312 2287.898438 990.53125 2288.851562 994.734375 2290.761719 C 998.9375 2292.679688 1002.539062 2295.25 1005.550781 2298.5 C 1008.558594 2301.75 1010.898438 2305.550781 1012.570312 2309.890625 C 1014.238281 2314.238281 1015.078125 2318.851562 1015.078125 2323.71875 Z M 1033.558594 2323.429688 C 1033.558594 2316.359375 1032.269531 2309.679688 1029.691406 2303.371094 C 1027.109375 2297.070312 1023.53125 2291.578125 1018.949219 2286.898438 C 1014.359375 2282.21875 1008.871094 2278.519531 1002.46875 2275.789062 C 996.070312 2273.070312 989 2271.710938 981.265625 2271.710938 C 973.527344 2271.710938 966.457031 2273.101562 960.058594 2275.859375 C 953.660156 2278.640625 948.121094 2282.378906 943.441406 2287.109375 C 938.761719 2291.839844 935.132812 2297.359375 932.550781 2303.660156 C 929.972656 2309.960938 928.683594 2316.648438 928.683594 2323.71875 C 928.683594 2330.789062 929.972656 2337.46875 932.550781 2343.78125 C 935.132812 2350.078125 938.710938 2355.570312 943.296875 2360.25 C 947.882812 2364.929688 953.375 2368.628906 959.773438 2371.359375 C 966.171875 2374.078125 973.242188 2375.441406 980.976562 2375.441406 C 988.714844 2375.441406 995.78125 2374.058594 1002.179688 2371.289062 C 1008.578125 2368.511719 1014.121094 2364.769531 1018.800781 2360.039062 C 1023.480469 2355.308594 1027.109375 2349.789062 1029.691406 2343.488281 C 1032.269531 2337.191406 1033.558594 2330.5 1033.558594 2323.429688 Z M 1175.140625 2273.429688 L 1157.660156 2273.429688 L 1157.660156 2331.171875 C 1157.660156 2340.429688 1155.390625 2347.398438 1150.878906 2352.089844 C 1146.359375 2356.769531 1140.179688 2359.109375 1132.300781 2359.109375 C 1124.328125 2359.109375 1118.089844 2356.671875 1113.578125 2351.800781 C 1109.070312 2346.929688 1106.800781 2339.808594 1106.800781 2330.449219 L 1106.800781 2273.429688 L 1089.320312 2273.429688 L 1089.320312 2331.171875 C 1089.320312 2338.429688 1090.320312 2344.800781 1092.328125 2350.300781 C 1094.328125 2355.789062 1097.199219 2360.390625 1100.929688 2364.121094 C 1104.648438 2367.851562 1109.140625 2370.640625 1114.390625 2372.5 C 1119.648438 2374.371094 1125.519531 2375.300781 1132.019531 2375.300781 C 1138.609375 2375.300781 1144.550781 2374.371094 1149.851562 2372.5 C 1155.148438 2370.640625 1159.671875 2367.820312 1163.390625 2364.050781 C 1167.121094 2360.28125 1170.011719 2355.570312 1172.058594 2349.941406 C 1174.109375 2344.300781 1175.140625 2337.761719 1175.140625 2330.308594 Z M 1299.378906 2306.171875 C 1299.378906 2311.351562 1297.519531 2315.480469 1293.769531 2318.539062 C 1290.050781 2321.621094 1285.011719 2323.148438 1278.679688 2323.148438 L 1252.820312 2323.148438 L 1252.820312 2289.339844 L 1278.53125 2289.339844 C 1285.148438 2289.339844 1290.28125 2290.738281 1293.910156 2293.589844 C 1297.570312 2296.398438 1299.378906 2300.601562 1299.378906 2306.171875 Z M 1320.441406 2373.71875 L 1293.359375 2335.75 C 1296.898438 2334.800781 1300.121094 2333.441406 1303.039062 2331.671875 C 1305.949219 2329.898438 1308.449219 2327.75 1310.558594 2325.21875 C 1312.660156 2322.691406 1314.308594 2319.78125 1315.5 2316.480469 C 1316.691406 2313.191406 1317.289062 2309.441406 1317.289062 2305.238281 C 1317.289062 2300.371094 1316.429688 2295.949219 1314.710938 2291.980469 C 1312.988281 2288.019531 1310.53125 2284.679688 1307.328125 2281.960938 C 1304.128906 2279.230469 1300.21875 2277.128906 1295.578125 2275.648438 C 1290.949219 2274.171875 1285.769531 2273.429688 1280.039062 2273.429688 L 1235.339844 2273.429688 L 1235.339844 2373.71875 L 1252.820312 2373.71875 L 1252.820312 2338.761719 L 1274.949219 2338.761719 L 1299.671875 2373.71875 Z M 1432.648438 2299.648438 C 1432.648438 2296.300781 1434.078125 2293.460938 1436.949219 2291.121094 C 1439.808594 2288.78125 1443.828125 2287.609375 1448.980469 2287.609375 C 1453.570312 2287.609375 1458.109375 2288.5 1462.601562 2290.261719 C 1467.089844 2292.03125 1471.621094 2294.589844 1476.210938 2297.929688 L 1485.660156 2284.601562 C 1480.511719 2280.5 1474.988281 2277.371094 1469.121094 2275.21875 C 1463.238281 2273.070312 1456.628906 2272 1449.269531 2272 C 1444.308594 2272 1439.71875 2272.691406 1435.539062 2274.070312 C 1431.339844 2275.460938 1427.761719 2277.441406 1424.769531 2280.019531 C 1421.789062 2282.601562 1419.449219 2285.679688 1417.730469 2289.261719 C 1416.03125 2292.839844 1415.171875 2296.828125 1415.171875 2301.21875 C 1415.171875 2305.898438 1415.910156 2309.859375 1417.390625 2313.109375 C 1418.871094 2316.359375 1421.050781 2319.128906 1423.859375 2321.421875 C 1426.679688 2323.71875 1430.191406 2325.628906 1434.351562 2327.148438 C 1438.53125 2328.679688 1443.28125 2330.070312 1448.648438 2331.308594 C 1453.328125 2332.460938 1457.128906 2333.558594 1460.070312 2334.609375 C 1462.980469 2335.660156 1465.269531 2336.78125 1466.96875 2337.96875 C 1468.640625 2339.171875 1469.78125 2340.480469 1470.410156 2341.910156 C 1471.03125 2343.351562 1471.339844 2344.96875 1471.339844 2346.789062 C 1471.339844 2350.699219 1469.738281 2353.808594 1466.539062 2356.101562 C 1463.328125 2358.390625 1459.019531 2359.539062 1453.570312 2359.539062 C 1447.269531 2359.539062 1441.628906 2358.421875 1436.660156 2356.171875 C 1431.699219 2353.929688 1426.78125 2350.699219 1421.910156 2346.5 L 1411.300781 2359.109375 C 1417.320312 2364.550781 1423.859375 2368.589844 1430.929688 2371.21875 C 1438 2373.839844 1445.398438 2375.160156 1453.140625 2375.160156 C 1458.390625 2375.160156 1463.21875 2374.488281 1467.609375 2373.148438 C 1471.980469 2371.808594 1475.75 2369.851562 1478.859375 2367.28125 C 1481.988281 2364.699219 1484.421875 2361.550781 1486.191406 2357.820312 C 1487.929688 2354.089844 1488.820312 2349.839844 1488.820312 2345.070312 C 1488.820312 2340.859375 1488.121094 2337.210938 1486.738281 2334.109375 C 1485.351562 2331 1483.300781 2328.28125 1480.628906 2325.941406 C 1477.949219 2323.601562 1474.558594 2321.621094 1470.5 2320 C 1466.441406 2318.371094 1461.761719 2316.890625 1456.511719 2315.550781 C 1451.710938 2314.410156 1447.769531 2313.308594 1444.640625 2312.261719 C 1441.53125 2311.210938 1439.101562 2310.058594 1437.308594 2308.820312 C 1435.539062 2307.578125 1434.320312 2306.238281 1433.660156 2304.808594 C 1432.988281 2303.371094 1432.648438 2301.648438 1432.648438 2299.648438 Z M 1545.578125 2373.71875 L 1615.78125 2373.71875 L 1615.78125 2357.820312 L 1563.050781 2357.820312 L 1563.050781 2273.429688 L 1545.578125 2273.429688 Z M 1746.46875 2323.71875 C 1746.46875 2328.589844 1745.628906 2333.199219 1743.960938 2337.539062 C 1742.289062 2341.890625 1739.96875 2345.660156 1737.011719 2348.859375 C 1734.050781 2352.058594 1730.5 2354.589844 1726.339844 2356.460938 C 1722.179688 2358.320312 1717.621094 2359.25 1712.660156 2359.25 C 1707.691406 2359.25 1703.101562 2358.300781 1698.898438 2356.390625 C 1694.699219 2354.46875 1691.089844 2351.890625 1688.078125 2348.648438 C 1685.070312 2345.398438 1682.738281 2341.601562 1681.058594 2337.261719 C 1679.390625 2332.910156 1678.550781 2328.300781 1678.550781 2323.429688 C 1678.550781 2318.558594 1679.390625 2313.949219 1681.058594 2309.601562 C 1682.738281 2305.261719 1685.050781 2301.488281 1688.011719 2298.289062 C 1690.96875 2295.089844 1694.53125 2292.550781 1698.679688 2290.691406 C 1702.839844 2288.828125 1707.398438 2287.898438 1712.371094 2287.898438 C 1717.339844 2287.898438 1721.921875 2288.851562 1726.121094 2290.761719 C 1730.328125 2292.679688 1733.929688 2295.25 1736.941406 2298.5 C 1739.949219 2301.75 1742.289062 2305.550781 1743.960938 2309.890625 C 1745.628906 2314.238281 1746.46875 2318.851562 1746.46875 2323.71875 Z M 1764.949219 2323.429688 C 1764.949219 2316.359375 1763.660156 2309.679688 1761.078125 2303.371094 C 1758.5 2297.070312 1754.921875 2291.578125 1750.339844 2286.898438 C 1745.75 2282.21875 1740.261719 2278.519531 1733.859375 2275.789062 C 1727.460938 2273.070312 1720.390625 2271.710938 1712.660156 2271.710938 C 1704.921875 2271.710938 1697.851562 2273.101562 1691.449219 2275.859375 C 1685.050781 2278.640625 1679.511719 2282.378906 1674.828125 2287.109375 C 1670.148438 2291.839844 1666.519531 2297.359375 1663.941406 2303.660156 C 1661.359375 2309.960938 1660.070312 2316.648438 1660.070312 2323.71875 C 1660.070312 2330.789062 1661.359375 2337.46875 1663.941406 2343.78125 C 1666.519531 2350.078125 1670.101562 2355.570312 1674.691406 2360.25 C 1679.269531 2364.929688 1684.769531 2368.628906 1691.160156 2371.359375 C 1697.558594 2374.078125 1704.628906 2375.441406 1712.371094 2375.441406 C 1720.101562 2375.441406 1727.171875 2374.058594 1733.570312 2371.289062 C 1739.96875 2368.511719 1745.511719 2364.769531 1750.191406 2360.039062 C 1754.871094 2355.308594 1758.5 2349.789062 1761.078125 2343.488281 C 1763.660156 2337.191406 1764.949219 2330.5 1764.949219 2323.429688 Z M 1911.691406 2359.820312 L 1911.691406 2317.699219 L 1868.988281 2317.699219 L 1868.988281 2333.03125 L 1894.640625 2333.03125 L 1894.640625 2351.890625 C 1891.578125 2354.210938 1887.96875 2356.050781 1883.820312 2357.460938 C 1879.660156 2358.839844 1875.199219 2359.53125 1870.421875 2359.53125 C 1865.269531 2359.53125 1860.609375 2358.628906 1856.449219 2356.808594 C 1852.300781 2355 1848.71875 2352.460938 1845.710938 2349.269531 C 1842.699219 2346.070312 1840.378906 2342.269531 1838.761719 2337.851562 C 1837.128906 2333.460938 1836.320312 2328.660156 1836.320312 2323.5 C 1836.320312 2318.628906 1837.160156 2314.019531 1838.828125 2309.71875 C 1840.5 2305.398438 1842.800781 2301.628906 1845.710938 2298.378906 C 1848.621094 2295.128906 1852.058594 2292.550781 1856.019531 2290.691406 C 1859.988281 2288.828125 1864.261719 2287.890625 1868.851562 2287.890625 C 1872 2287.890625 1874.890625 2288.160156 1877.511719 2288.679688 C 1880.140625 2289.210938 1882.550781 2289.929688 1884.75 2290.828125 C 1886.949219 2291.738281 1889.050781 2292.859375 1891.050781 2294.199219 C 1893.058594 2295.539062 1895.019531 2297.019531 1896.929688 2298.640625 L 1908.101562 2285.320312 C 1905.519531 2283.121094 1902.871094 2281.179688 1900.148438 2279.519531 C 1897.429688 2277.839844 1894.539062 2276.429688 1891.480469 2275.289062 C 1888.421875 2274.140625 1885.109375 2273.261719 1881.519531 2272.640625 C 1877.941406 2272.011719 1873.960938 2271.710938 1869.558594 2271.710938 C 1862.011719 2271.710938 1855.070312 2273.089844 1848.710938 2275.859375 C 1842.359375 2278.628906 1836.890625 2282.378906 1832.308594 2287.109375 C 1827.71875 2291.839844 1824.171875 2297.351562 1821.640625 2303.660156 C 1819.101562 2309.960938 1817.839844 2316.648438 1817.839844 2323.71875 C 1817.839844 2331.070312 1819.078125 2337.898438 1821.558594 2344.199219 C 1824.050781 2350.511719 1827.558594 2355.980469 1832.089844 2360.609375 C 1836.628906 2365.238281 1842.101562 2368.871094 1848.5 2371.488281 C 1854.898438 2374.121094 1862.011719 2375.441406 1869.851562 2375.441406 C 1874.238281 2375.441406 1878.441406 2375.03125 1882.460938 2374.21875 C 1886.46875 2373.410156 1890.21875 2372.28125 1893.699219 2370.851562 C 1897.191406 2369.421875 1900.441406 2367.738281 1903.441406 2365.828125 C 1906.460938 2363.921875 1909.199219 2361.921875 1911.679688 2359.820312 Z M 2031.351562 2333.890625 L 1996.820312 2333.890625 L 2014.011719 2293.769531 L 2031.339844 2333.890625 Z M 2022.460938 2272.710938 L 2006.128906 2272.710938 L 1962 2373.71875 L 1980.050781 2373.71875 L 1990.371094 2349.511719 L 2037.789062 2349.511719 L 2047.960938 2373.71875 L 2066.589844 2373.71875 Z M 2189.691406 2342.769531 L 2136.078125 2273.429688 L 2119.769531 2273.429688 L 2119.769531 2373.71875 L 2137.25 2373.71875 L 2137.25 2302.371094 L 2192.441406 2373.71875 L 2207.171875 2373.71875 L 2207.171875 2273.429688 L 2189.691406 2273.429688 Z M 850.429688 2333.75 L 890.261719 2273.429688 L 870.058594 2273.429688 L 841.691406 2317.839844 L 813.613281 2273.429688 L 792.835938 2273.429688 L 832.664062 2334.179688 L 832.664062 2373.71875 L 850.429688 2373.71875 L 850.429688 2333.75 "/>
</svg>
